<svg width="24" height="24" viewBox="0 0 24 24" fill="none" xmlns="http://www.w3.org/2000/svg">
<path d="M16.3654 6.41406C14.4754 6.41406 13.6766 7.31594 12.3604 7.31594C11.0108 7.31594 9.98147 6.42062 8.34366 6.42062C6.74053 6.42062 5.031 7.39937 3.94538 9.06672C2.421 11.418 2.67975 15.8462 5.14866 19.6187C6.03178 20.9692 7.21116 22.4837 8.75803 22.5002H8.78616C10.1305 22.5002 10.5299 21.6198 12.3801 21.6095H12.4082C14.2307 21.6095 14.5963 22.495 15.9351 22.495H15.9632C17.5101 22.4786 18.7527 20.8005 19.6358 19.4552C20.2715 18.4877 20.5077 18.002 20.9952 16.9075C17.4238 15.5519 16.8501 10.4889 20.3821 8.54781C19.304 7.19781 17.789 6.41594 16.3607 6.41594L16.3654 6.41406Z" fill="#131316"/>
<path d="M15.9496 1.50195C14.8246 1.57836 13.5121 2.29461 12.7433 3.22977C12.0458 4.07727 11.4721 5.33445 11.6971 6.55367H11.7871C12.9852 6.55367 14.2114 5.83226 14.9277 4.90789C15.6177 4.02805 16.1408 2.78117 15.9496 1.50195Z" fill="#131316"/>
</svg>
