<svg width="24" height="24" viewBox="0 0 24 24" fill="none" xmlns="http://www.w3.org/2000/svg">
<path d="M23.9888 12.2242C23.9888 11.2409 23.9071 10.5234 23.7304 9.7793H12.2393V14.2173H18.9843C18.8484 15.3202 18.114 16.9811 16.4821 18.0972L16.4592 18.2458L20.0925 20.996L20.3442 21.0205C22.656 18.9344 23.9888 15.8649 23.9888 12.2242Z" fill="#4285F4"/>
<path d="M12.2393 23.9178C15.5438 23.9178 18.3179 22.8548 20.3442 21.0211L16.4821 18.0978C15.4486 18.8021 14.0615 19.2937 12.2393 19.2937C9.00273 19.2937 6.25576 17.2076 5.27654 14.3242L5.13301 14.3361L1.35507 17.193L1.30566 17.3271C3.31829 21.2337 7.45238 23.9178 12.2393 23.9178Z" fill="#34A853"/>
<path d="M5.27634 14.3248C5.01797 13.5807 4.86844 12.7834 4.86844 11.9596C4.86844 11.1357 5.01797 10.3385 5.26275 9.59439L5.25591 9.43592L1.43062 6.5332L1.30547 6.59137C0.475969 8.21247 0 10.0329 0 11.9596C0 13.8863 0.475969 15.7066 1.30547 17.3277L5.27634 14.3248Z" fill="#FBBC05"/>
<path d="M12.2393 4.62403C14.5374 4.62403 16.0877 5.59402 16.9717 6.40461L20.4258 3.10928C18.3044 1.1826 15.5438 0 12.2393 0C7.45238 0 3.31829 2.68406 1.30566 6.59056L5.26295 9.59359C6.25576 6.7102 9.00273 4.62403 12.2393 4.62403Z" fill="#EB4335"/>
</svg>
