<svg width="548" height="509" viewBox="0 0 548 509" fill="none" xmlns="http://www.w3.org/2000/svg">
<path d="M273.713 509C122.545 509 -0.000427246 494.019 -0.000427246 475.54C-0.000427246 457.061 122.545 442.08 273.713 442.08C424.88 442.08 547.426 457.061 547.426 475.54C547.426 494.019 424.88 509 273.713 509Z" fill="black"/>
<path d="M157.559 239.309H259.983V411.366H157.559V239.309Z" fill="#14B7F1"/>
<path opacity="0.2" d="M157.559 239.309H259.983V411.366H157.559V239.309Z" fill="black"/>
<path d="M242.731 323.071H397.249L432.702 143.934H278.187L242.731 323.071Z" fill="#14B7F1"/>
<path opacity="0.2" d="M242.731 323.071H397.249L432.702 143.934H278.187L242.731 323.071Z" fill="black"/>
<path d="M397.245 323.071H451.232L482.132 166.95L432.701 143.934L397.245 323.071Z" fill="#14B7F1"/>
<path opacity="0.3" d="M397.245 323.071H451.232L482.132 166.95L432.701 143.934L397.245 323.071Z" fill="black"/>
<path d="M379.504 239.309H507.701V411.366H379.504V239.309Z" fill="#14B7F1"/>
<path opacity="0.2" d="M424.964 239.309H507.701V411.366H424.964V239.309Z" fill="black"/>
<path opacity="0.2" d="M203.021 411.366H225.627L259.306 239.307H203.018L203.021 411.366Z" fill="black"/>
<path d="M203.021 284.902H379.504V411.366H203.021V284.902Z" fill="#14B7F1"/>
<path opacity="0.2" d="M203.021 284.902H379.504V411.366H203.021V284.902Z" fill="black"/>
<g opacity="0.1">
<path d="M413.823 239.31L396.662 238.998L379.504 238.781H378.988V239.317L378.794 259.439L378.725 279.576C378.67 293 378.63 306.423 378.705 319.847C378.779 333.271 378.767 346.695 378.931 360.119C379.043 373.543 379.236 386.967 379.509 400.39C379.788 386.965 379.98 373.542 380.085 360.119C380.248 346.695 380.268 333.271 380.31 319.847C380.353 306.423 380.345 293.002 380.29 279.576L380.221 259.439L380.027 239.317L379.509 239.843L396.667 239.626L413.823 239.31Z" fill="black"/>
<path d="M203.021 239.307C202.669 252.778 202.502 266.252 202.366 279.726L202.165 320.144L202.361 360.563L202.609 380.776L203.028 400.986L203.448 380.776L203.696 360.563L203.895 320.144L203.694 279.726C203.54 266.255 203.373 252.781 203.021 239.307Z" fill="black"/>
<path d="M203.02 323.075C217.727 323.432 232.433 323.6 247.142 323.739L291.262 323.94L335.384 323.741L357.444 323.49L379.506 323.065L357.444 322.64L335.384 322.388L291.262 322.189L247.142 322.393C232.433 322.549 217.727 322.715 203.02 323.075Z" fill="black"/>
<path d="M203.02 284.901C217.727 285.261 232.433 285.427 247.142 285.565L291.262 285.769L335.384 285.57L357.444 285.319L379.506 284.893L357.444 284.468L335.384 284.217L291.262 284.016L247.142 284.219C232.433 284.375 217.727 284.544 203.02 284.901Z" fill="black"/>
</g>
<path d="M476.258 411.363L477.377 425.303L479.991 457.51H491.97L494.583 425.303L495.702 411.363H476.258Z" fill="#131316"/>
<path d="M495.702 411.363H476.258L477.377 425.303H494.583L495.702 411.363Z" fill="black"/>
<path d="M392.513 411.363L393.632 425.303L396.245 457.51H408.225L410.838 425.303L411.957 411.363H392.513Z" fill="#131316"/>
<path d="M411.955 411.363H392.511L393.63 425.303H410.836L411.955 411.363Z" fill="black"/>
<path d="M169.838 411.363L170.957 425.303L173.571 457.51H185.55L188.163 425.303L189.282 411.363H169.838Z" fill="#455A64"/>
<path d="M169.838 411.363L170.957 425.303H188.163L189.282 411.363H169.838Z" fill="#37474F"/>
<g opacity="0.2">
<path d="M412.888 201.029C413.176 201.029 413.452 201.145 413.655 201.351C413.858 201.557 413.973 201.837 413.973 202.128C413.973 202.42 413.858 202.7 413.655 202.906C413.452 203.112 413.176 203.228 412.888 203.228C412.6 203.228 412.325 203.112 412.121 202.906C411.918 202.7 411.804 202.42 411.804 202.128C411.804 201.837 411.918 201.557 412.121 201.351C412.325 201.145 412.6 201.029 412.888 201.029Z" fill="black"/>
<path d="M411.034 361.863C411.321 361.863 411.597 361.979 411.801 362.185C412.004 362.391 412.118 362.671 412.118 362.962C412.118 363.254 412.004 363.534 411.801 363.74C411.597 363.946 411.321 364.062 411.034 364.062C410.746 364.062 410.47 363.946 410.267 363.74C410.063 363.534 409.949 363.254 409.949 362.962C409.949 362.671 410.063 362.391 410.267 362.185C410.47 361.979 410.746 361.863 411.034 361.863Z" fill="black"/>
<path d="M292.568 334.359C292.855 334.359 293.131 334.475 293.335 334.681C293.538 334.887 293.652 335.167 293.652 335.459C293.652 335.75 293.538 336.03 293.335 336.236C293.131 336.442 292.855 336.558 292.568 336.558C292.28 336.558 292.004 336.442 291.801 336.236C291.598 336.03 291.483 335.75 291.483 335.459C291.483 335.167 291.598 334.887 291.801 334.681C292.004 334.475 292.28 334.359 292.568 334.359Z" fill="black"/>
<path d="M336.901 314.546C336.95 314.433 337.007 314.323 337.07 314.217C337.114 314.144 337.176 314.084 337.25 314.042C337.324 314 337.407 313.979 337.492 313.979C337.576 313.979 337.659 314 337.733 314.042C337.807 314.084 337.869 314.144 337.913 314.217C337.976 314.323 338.033 314.433 338.082 314.546C338.688 315.844 336.278 315.844 336.901 314.546Z" fill="black"/>
<path d="M445.189 364.63C445.239 364.517 445.295 364.407 445.358 364.3C445.403 364.228 445.465 364.169 445.538 364.127C445.612 364.086 445.695 364.064 445.779 364.064C445.863 364.064 445.945 364.086 446.019 364.127C446.093 364.169 446.155 364.228 446.199 364.3C446.262 364.407 446.318 364.517 446.368 364.63C446.981 365.933 444.571 365.933 445.189 364.63Z" fill="black"/>
<path d="M403.562 207.736C403.782 207.736 403.992 207.825 404.148 207.982C404.303 208.14 404.391 208.354 404.391 208.576C404.391 208.799 404.303 209.013 404.148 209.17C403.992 209.328 403.782 209.417 403.562 209.417C403.342 209.417 403.131 209.328 402.976 209.17C402.82 209.013 402.733 208.799 402.733 208.576C402.733 208.354 402.82 208.14 402.976 207.982C403.131 207.825 403.342 207.736 403.562 207.736Z" fill="black"/>
<path d="M485.988 284.93C486.208 284.93 486.419 285.018 486.575 285.176C486.73 285.333 486.817 285.547 486.817 285.77C486.817 285.993 486.73 286.206 486.575 286.364C486.419 286.521 486.208 286.61 485.988 286.61C485.769 286.61 485.558 286.521 485.402 286.364C485.247 286.206 485.16 285.993 485.16 285.77C485.16 285.547 485.247 285.333 485.402 285.176C485.558 285.018 485.769 284.93 485.988 284.93Z" fill="black"/>
<path d="M352.515 160.878C352.731 160.662 353.022 160.541 353.325 160.541C353.629 160.541 353.92 160.662 354.136 160.878C354.335 161.083 354.476 161.338 354.545 161.617C354.615 161.896 354.609 162.189 354.53 162.465C354.452 162.726 354.292 162.955 354.076 163.118C353.859 163.281 353.596 163.369 353.327 163.369C353.057 163.369 352.794 163.281 352.578 163.118C352.361 162.955 352.202 162.726 352.123 162.465C352.044 162.189 352.038 161.897 352.107 161.618C352.176 161.339 352.317 161.083 352.515 160.878Z" fill="black"/>
<path d="M401.948 355.64C402.164 355.424 402.455 355.303 402.758 355.303C403.062 355.303 403.353 355.424 403.568 355.64C403.767 355.844 403.908 356.099 403.978 356.378C404.047 356.656 404.042 356.948 403.963 357.224C403.885 357.486 403.725 357.715 403.508 357.877C403.292 358.04 403.029 358.128 402.759 358.128C402.49 358.128 402.227 358.04 402.011 357.877C401.794 357.715 401.634 357.486 401.556 357.224C401.477 356.949 401.471 356.657 401.54 356.378C401.609 356.1 401.75 355.845 401.948 355.64Z" fill="black"/>
<path d="M208.647 340.674C208.369 340.661 208.106 340.539 207.914 340.335C207.722 340.13 207.614 339.859 207.614 339.576C207.614 339.294 207.722 339.022 207.914 338.818C208.106 338.614 208.369 338.492 208.647 338.479C208.925 338.492 209.188 338.614 209.38 338.818C209.572 339.022 209.68 339.294 209.68 339.576C209.68 339.859 209.572 340.13 209.38 340.335C209.188 340.539 208.925 340.661 208.647 340.674Z" fill="black"/>
<path d="M336.791 391.462C336.504 391.462 336.228 391.346 336.025 391.14C335.821 390.934 335.707 390.654 335.707 390.363C335.707 390.071 335.821 389.792 336.025 389.586C336.228 389.379 336.504 389.264 336.791 389.264C337.079 389.264 337.355 389.379 337.558 389.586C337.762 389.792 337.876 390.071 337.876 390.363C337.876 390.654 337.762 390.934 337.558 391.14C337.355 391.346 337.079 391.462 336.791 391.462Z" fill="black"/>
<path d="M274.515 193.895C274.237 193.882 273.974 193.76 273.782 193.556C273.59 193.351 273.483 193.08 273.483 192.797C273.483 192.515 273.59 192.243 273.782 192.039C273.974 191.834 274.237 191.713 274.515 191.699C274.794 191.713 275.056 191.834 275.248 192.039C275.441 192.243 275.548 192.515 275.548 192.797C275.548 193.08 275.441 193.351 275.248 193.556C275.056 193.76 274.794 193.882 274.515 193.895Z" fill="black"/>
<path d="M173.501 330.284C173.452 330.397 173.396 330.507 173.332 330.613C173.288 330.686 173.226 330.745 173.152 330.786C173.078 330.828 172.996 330.849 172.912 330.849C172.827 330.849 172.745 330.828 172.671 330.786C172.598 330.745 172.536 330.686 172.491 330.613C172.428 330.507 172.371 330.397 172.322 330.284C171.707 328.981 174.116 328.981 173.501 330.284Z" fill="black"/>
<path d="M272.992 264.039C272.777 264.255 272.486 264.377 272.183 264.377C271.88 264.377 271.589 264.255 271.374 264.039C271.175 263.835 271.033 263.58 270.964 263.301C270.894 263.023 270.9 262.73 270.979 262.455C271.057 262.192 271.216 261.962 271.433 261.799C271.65 261.635 271.914 261.547 272.184 261.547C272.454 261.547 272.718 261.635 272.935 261.799C273.152 261.962 273.311 262.192 273.389 262.455C273.467 262.731 273.472 263.023 273.402 263.301C273.332 263.58 273.191 263.835 272.992 264.039Z" fill="black"/>
</g>
<path d="M256.467 160.649C257.437 160.649 261.971 160.7 268.605 160.78C272.084 153.793 273.333 145.882 272.178 138.143C271.95 136.382 276.226 146.516 274.769 160.848C287.582 160.986 305.014 161.165 320.239 161.175C320.452 155.138 320.921 149.57 320.921 149.57C321.453 153.516 322.333 157.406 323.55 161.193C325.632 161.21 327.672 161.193 329.627 161.193C329.429 152.633 329.693 144.068 330.419 135.537C331.64 144.456 334.297 153.111 338.283 161.157C347.962 161.059 354.308 160.818 353.891 160.36C339.045 143.566 349.625 133.638 345.269 118.73C340.045 100.872 324.753 98.2263 325.029 84.7497C325.227 73.7883 326.309 53.8903 312.598 49.8257C308.854 46.2092 304.142 43.7912 299.05 42.8742C293.958 41.9571 288.713 42.5815 283.969 44.6694C262.497 53.3394 271.484 87.0159 270.101 93.9076C268.136 103.755 263.569 107.276 260.276 118.522C256.911 129.903 262.103 137.358 262.783 145.032C263.463 152.706 254.042 160.667 256.467 160.649Z" fill="#131316"/>
<path d="M354.29 157.912C352.252 154.98 350.63 151.773 349.471 148.385C348.555 145.021 348.523 141.473 349.376 138.092C350.105 134.506 350.65 130.885 351.012 127.242C351.352 123.441 350.939 119.61 349.796 115.973C348.566 112.339 346.528 109.041 343.84 106.332C341.24 103.753 338.432 101.397 335.446 99.2898C332.561 97.2757 329.948 94.8878 327.674 92.1868C325.488 89.3701 324.104 86.0016 323.671 82.4453C323.58 86.1687 324.604 89.8327 326.609 92.9539C328.705 95.9943 331.24 98.6982 334.129 100.975C336.881 103.191 339.49 105.583 341.941 108.136C344.263 110.637 346.024 113.617 347.105 116.871C348.104 120.17 348.493 123.626 348.255 127.068C348.101 130.577 347.51 134.111 347.086 137.753C346.853 139.605 346.761 141.473 346.81 143.339C346.913 145.254 347.352 147.134 348.106 148.893C349.623 152.247 351.717 155.301 354.29 157.912Z" fill="#131316"/>
<path d="M271.928 57.3887C270.482 61.6295 269.555 66.0337 269.166 70.5031C268.669 74.955 268.399 79.4196 268.173 83.869L267.791 90.5093C267.693 92.6517 267.39 94.7794 266.887 96.8627C265.669 100.984 263.722 104.847 261.142 108.264C259.864 110.15 258.711 112.12 257.693 114.162C256.679 116.26 255.902 118.466 255.375 120.74C254.921 122.998 254.635 125.287 254.516 127.589C254.393 129.904 254.549 132.226 254.98 134.503C255.402 136.785 256.065 138.935 256.626 141.043C257.193 143.141 257.56 145.29 257.72 147.459C257.817 149.635 257.4 151.804 256.503 153.783C255.606 155.763 254.255 157.497 252.563 158.841C254.498 157.636 256.107 155.963 257.246 153.972C258.385 151.981 259.019 149.734 259.09 147.434C259.1 145.154 258.881 142.878 258.435 140.643C258.023 138.409 257.442 136.279 257.174 134.154C256.688 129.882 256.971 125.556 258.01 121.386C258.536 119.333 259.269 117.34 260.199 115.44C261.184 113.515 262.296 111.66 263.527 109.887C264.798 108.013 265.975 106.074 267.051 104.079C268.143 102.013 268.973 99.8161 269.52 97.5393C269.999 95.2781 270.259 92.975 270.297 90.6627C270.392 88.4115 270.401 86.1805 270.406 83.952C270.441 79.495 270.406 75.0557 270.565 70.6213C270.57 66.1747 271.027 61.7404 271.928 57.3887Z" fill="#131316"/>
<path d="M234.257 480.483C238.034 479.98 332.882 432 335.287 427.963C335.59 427.495 331.497 418.712 325.698 406.764C321.094 397.287 314.882 385.516 308.763 374.232L248.691 403.912L260.667 426.919C260.667 426.919 250.123 439.867 241.558 450.846C241.558 450.879 241.543 450.879 241.543 450.894C237.709 455.531 234.16 460.403 230.917 465.483C228.75 470.168 230.487 481.017 234.257 480.483Z" fill="black"/>
<path d="M233.175 482.938C237.086 482.332 332.617 432.568 335.076 428.337C336.213 426.383 326.621 405.348 316.037 383.385L253.798 415.58L259.844 426.793C259.844 426.793 231.676 462.426 229.47 467.361C227.264 472.296 229.259 483.546 233.175 482.938Z" fill="#F3BA2F"/>
<path d="M232.59 478.35C248.401 469.609 312.997 435.87 329.274 428.447C329.406 428.387 329.453 428.478 329.326 428.551C313.843 437.56 248.986 470.769 232.724 478.619C232.371 478.782 232.245 478.533 232.59 478.35Z" fill="#131316"/>
<path d="M255.756 424.353C261.464 419.878 269.654 416.842 276.779 418.887C277.054 418.965 276.94 419.36 276.704 419.39C269.683 420.558 262.805 422.484 256.188 425.135C256.089 425.166 255.982 425.163 255.886 425.124C255.789 425.085 255.709 425.014 255.658 424.922C255.608 424.83 255.59 424.723 255.607 424.62C255.625 424.516 255.678 424.422 255.756 424.353Z" fill="#131316"/>
<path d="M252.614 429.502C258.322 425.03 266.512 421.994 273.639 424.036C273.914 424.117 273.798 424.512 273.562 424.554C266.54 425.72 259.662 427.646 253.046 430.299C252.944 430.336 252.832 430.336 252.731 430.297C252.63 430.258 252.545 430.184 252.493 430.088C252.441 429.991 252.425 429.88 252.447 429.772C252.469 429.665 252.528 429.569 252.614 429.502Z" fill="#131316"/>
<path d="M249.478 434.651C255.186 430.176 263.376 427.14 270.5 429.183C270.776 429.263 270.662 429.658 270.424 429.701C263.403 430.868 256.526 432.794 249.91 435.446C249.808 435.486 249.695 435.487 249.592 435.449C249.49 435.411 249.404 435.337 249.351 435.239C249.298 435.142 249.282 435.029 249.306 434.921C249.329 434.813 249.39 434.717 249.478 434.651Z" fill="#131316"/>
<path d="M246.338 439.797C252.046 435.322 260.235 432.289 267.363 434.331C267.638 434.409 267.522 434.804 267.283 434.834C260.263 436.002 253.385 437.929 246.77 440.582C246.671 440.612 246.565 440.606 246.469 440.567C246.373 440.527 246.294 440.456 246.243 440.365C246.193 440.273 246.175 440.167 246.192 440.064C246.209 439.961 246.261 439.867 246.338 439.797Z" fill="#131316"/>
<path d="M236.628 415.646C237.35 410.9 242.75 410.053 246.517 410.923C252.955 412.537 258.86 415.84 263.641 420.498C263.662 420.519 263.679 420.544 263.689 420.573C263.699 420.601 263.702 420.631 263.699 420.661C263.695 420.69 263.685 420.719 263.669 420.744C263.653 420.769 263.632 420.79 263.606 420.805C263.675 420.927 263.714 421.064 263.721 421.204C263.727 421.344 263.701 421.484 263.644 421.612C263.587 421.74 263.501 421.853 263.393 421.941C263.285 422.029 263.159 422.089 263.023 422.118C256.819 422.873 250.299 424.462 244.06 423.27C240.422 422.578 235.943 420.139 236.628 415.646ZM253.401 421.321C256.456 421.022 259.479 420.566 262.544 420.39C259.261 418.429 255.884 416.637 252.424 415.02C250.737 414.263 249.002 413.622 247.229 413.104C244.477 412.349 235.188 412.538 239.854 418.967C242.425 422.516 249.761 421.675 253.404 421.323L253.401 421.321Z" fill="#131316"/>
<path d="M278.814 410.491C274.759 415.438 268.728 418.436 263.482 421.854C263.36 421.919 263.224 421.954 263.085 421.956C262.947 421.958 262.81 421.927 262.686 421.865C262.562 421.803 262.454 421.713 262.37 421.601C262.287 421.489 262.231 421.359 262.207 421.221C262.177 421.226 262.147 421.224 262.119 421.215C262.09 421.206 262.064 421.19 262.043 421.169C262.022 421.148 262.006 421.122 261.996 421.093C261.987 421.065 261.984 421.034 261.988 421.004C262.742 414.326 265.214 407.965 269.158 402.56C271.51 399.456 276.203 396.619 279.747 399.808C283.097 402.824 281.182 407.598 278.814 410.491ZM279.35 404.454C278.901 396.488 271.627 402.346 269.979 404.706C268.941 406.251 268.007 407.866 267.185 409.54C265.535 413.021 264.06 416.585 262.765 420.217C265.247 418.378 267.85 416.769 270.391 415.026C273.421 412.94 279.598 408.846 279.348 404.452L279.35 404.454Z" fill="#131316"/>
<path d="M246.385 416.288L315.262 381.029C315.262 381.029 265.075 285.913 266.403 284.168C271.031 278.116 326.929 280.87 351.066 256.548C376.627 230.8 356.587 190.664 356.587 190.664H289.805C289.805 190.664 290.934 212.514 288.068 214.916C286.172 216.518 187.984 226.119 184.139 252.378C177.474 297.836 246.385 416.288 246.385 416.288Z" fill="white"/>
<path d="M243.678 405.397C251.637 400.523 259.789 396.038 267.974 391.564C276.159 387.089 284.385 382.735 292.714 378.557C297.404 376.201 302.204 374.068 306.904 371.723C307.053 371.65 307.177 371.874 307.028 371.952C302.909 374.196 298.903 376.658 294.794 378.92C290.744 381.15 286.684 383.362 282.614 385.557C274.407 389.966 266.147 394.28 257.916 398.636C253.272 401.096 248.575 403.415 243.845 405.702C243.806 405.716 243.763 405.716 243.724 405.701C243.685 405.687 243.653 405.658 243.633 405.622C243.613 405.585 243.606 405.542 243.615 405.501C243.623 405.46 243.646 405.423 243.678 405.397Z" fill="#131316"/>
<path d="M240.099 273.035C241.737 269.599 246.1 269.091 249.349 268.268C258.227 266.02 267.106 263.779 275.987 261.545C291.721 257.594 307.939 253.866 322.038 245.42C328.77 241.396 335.307 236.282 338.665 228.92C341.958 221.714 342.02 213.711 342.075 205.931C342.075 204.007 341.973 202.088 341.849 200.168C341.849 200 342.097 200.008 342.097 200.168C342.593 207.827 343.36 215.491 341.668 223.07C340.885 226.743 339.45 230.241 337.434 233.395C335.317 236.52 332.72 239.28 329.741 241.572C317.273 251.484 301.633 256.231 286.51 260.144C277.963 262.358 269.386 264.46 260.814 266.588L247.582 269.873C245.624 270.14 243.759 270.886 242.149 272.046C241.526 272.674 241.054 273.439 240.771 274.282C240.487 275.125 240.399 276.023 240.514 276.906C240.702 278.741 241.155 280.539 241.859 282.241C242.651 284.343 243.492 286.431 244.326 288.529C245.954 292.6 247.627 296.654 249.346 300.69C252.806 308.824 256.399 316.9 260.127 324.917C267.552 340.893 275.486 356.624 283.579 372.263C284.586 374.213 285.564 376.174 286.557 378.131C286.565 378.155 286.565 378.181 286.557 378.204C286.548 378.228 286.532 378.247 286.511 378.26C286.489 378.272 286.464 378.276 286.44 378.272C286.415 378.267 286.394 378.254 286.378 378.234C277.714 362.771 269.617 346.958 261.911 330.986C254.26 315.14 246.979 299.027 240.789 282.525C240.06 281.068 239.623 279.479 239.504 277.85C239.386 276.221 239.588 274.584 240.099 273.035Z" fill="#131316"/>
<path d="M84.309 484.053C87.9075 485.266 193.923 484.119 197.829 481.551C198.291 481.259 198.326 458.237 198.326 458.237C200.398 447.421 202.485 434.179 204.316 421.668H134.223L131.163 447.575C131.163 447.575 116.092 454.55 103.651 460.636C103.636 460.652 103.619 460.652 103.619 460.669C98.1763 463.147 92.8834 465.951 87.7685 469.065C83.7903 472.332 80.6907 482.874 84.309 484.053Z" fill="black"/>
<path d="M82.8327 484.989C86.5925 486.246 194.013 485.59 198.083 482.944C199.346 482.124 202.887 442.182 203.004 434.123L131.261 434.339L131.655 447.109C131.655 447.109 90.6401 465.999 86.4734 469.392C82.3066 472.785 79.0729 483.739 82.8327 484.989Z" fill="#F3BA2F"/>
<path d="M84.3494 480.626C102.352 480.07 175.011 479.546 192.849 480.374C192.996 480.374 192.996 480.482 192.849 480.487C175.018 481.435 102.354 481.362 84.3494 480.915C83.9796 480.905 83.9672 480.636 84.3494 480.626Z" fill="#131316"/>
<path d="M129.097 443.071C136.174 441.688 144.846 442.737 150.29 447.823C150.501 448.019 150.223 448.326 149.99 448.245C143.207 446.069 136.213 444.636 129.129 443.969C129.027 443.95 128.935 443.897 128.868 443.817C128.8 443.738 128.761 443.638 128.758 443.533C128.754 443.429 128.785 443.326 128.847 443.242C128.909 443.158 128.997 443.098 129.097 443.071Z" fill="#131316"/>
<path d="M124 446.223C131.078 444.84 139.749 445.891 145.194 450.975C145.405 451.173 145.127 451.478 144.896 451.4C138.113 449.223 131.119 447.79 124.035 447.124C123.932 447.106 123.838 447.053 123.769 446.974C123.7 446.894 123.66 446.793 123.656 446.688C123.652 446.582 123.684 446.478 123.747 446.394C123.809 446.309 123.899 446.249 124 446.223Z" fill="#131316"/>
<path d="M118.905 449.379C125.983 447.996 134.651 449.047 140.096 454.131C140.307 454.327 140.029 454.634 139.798 454.556C133.015 452.379 126.022 450.945 118.937 450.28C118.832 450.265 118.736 450.213 118.665 450.133C118.594 450.053 118.553 449.951 118.549 449.843C118.546 449.736 118.579 449.631 118.644 449.546C118.709 449.461 118.801 449.402 118.905 449.379Z" fill="#131316"/>
<path d="M113.808 452.534C120.885 451.15 129.559 452.202 135.001 457.285C135.212 457.484 134.934 457.788 134.703 457.71C127.92 455.534 120.927 454.101 113.842 453.434C113.739 453.417 113.646 453.364 113.577 453.284C113.508 453.205 113.468 453.104 113.464 452.998C113.46 452.893 113.492 452.789 113.554 452.704C113.617 452.62 113.706 452.559 113.808 452.534Z" fill="#131316"/>
<path d="M115.912 426.541C118.671 422.637 123.868 424.355 126.831 426.857C131.859 431.244 135.66 436.893 137.852 443.239C137.861 443.267 137.863 443.296 137.859 443.325C137.855 443.354 137.845 443.381 137.829 443.406C137.813 443.43 137.792 443.45 137.767 443.465C137.742 443.479 137.715 443.488 137.686 443.491C137.693 443.631 137.667 443.771 137.61 443.899C137.553 444.027 137.467 444.14 137.359 444.228C137.252 444.316 137.125 444.377 136.989 444.406C136.853 444.434 136.713 444.43 136.579 444.394C130.717 442.233 124.183 440.659 119.15 436.74C116.207 434.461 113.301 430.233 115.912 426.541ZM128.348 439.285C131.206 440.417 134.103 441.403 136.919 442.643C134.864 439.391 132.648 436.245 130.281 433.218C129.115 431.769 127.852 430.403 126.501 429.129C124.384 427.197 116.011 423.112 117.319 430.982C118.024 435.321 124.945 437.935 128.348 439.285Z" fill="#131316"/>
<path d="M155.847 441.257C150.022 443.813 143.307 443.727 137.1 444.374C136.962 444.376 136.825 444.345 136.701 444.283C136.576 444.221 136.468 444.131 136.385 444.019C136.302 443.907 136.246 443.776 136.222 443.638C136.198 443.5 136.206 443.358 136.247 443.224C136.218 443.215 136.192 443.199 136.171 443.178C136.15 443.157 136.134 443.131 136.124 443.102C136.114 443.074 136.111 443.043 136.115 443.013C136.119 442.983 136.13 442.955 136.147 442.93C139.796 437.316 144.837 432.774 150.764 429.757C154.239 428.067 159.699 427.685 161.436 432.152C163.084 436.383 159.247 439.763 155.847 441.257ZM159.014 436.116C162.163 428.802 153.058 430.698 150.544 432.049C148.928 432.952 147.375 433.965 145.895 435.082C142.872 437.432 139.968 439.935 137.195 442.583C140.225 442.08 143.27 441.828 146.315 441.441C149.941 440.97 157.279 440.148 159.014 436.116Z" fill="#131316"/>
<path d="M129.351 433.133L209.374 432.539C209.374 432.539 225.778 306.287 232.272 299.232C235.556 295.66 341.167 295.195 367.063 270.181C393.163 244.973 367.063 190.654 367.063 190.654H298.921C298.921 190.654 297.231 211.966 302.442 225.017C302.442 225.017 207.157 226.577 181.184 247.265C146.348 275.025 129.351 433.133 129.351 433.133Z" fill="white"/>
<path d="M135.562 419.755C144.836 419.068 154.108 418.822 163.407 418.595C172.706 418.369 181.987 418.271 191.276 418.376C196.515 418.434 201.744 418.736 206.981 418.809C207.008 418.817 207.031 418.833 207.048 418.856C207.065 418.879 207.074 418.906 207.074 418.935C207.074 418.963 207.065 418.991 207.048 419.014C207.031 419.036 207.008 419.053 206.981 419.061C202.303 419.166 197.635 419.518 192.957 419.647C188.351 419.774 183.743 419.879 179.133 419.961C169.842 420.12 160.553 420.167 151.264 420.271C146.025 420.328 140.799 420.238 135.565 420.097C135.527 420.088 135.493 420.066 135.469 420.035C135.445 420.004 135.431 419.966 135.431 419.927C135.431 419.887 135.444 419.849 135.467 419.818C135.491 419.787 135.525 419.764 135.562 419.755Z" fill="#131316"/>
<path d="M332.367 200.741C332.462 201.061 332.589 201.37 332.746 201.664C332.761 201.691 332.765 201.722 332.758 201.752C332.751 201.782 332.734 201.808 332.709 201.825C333.607 204.647 333.977 207.658 334.843 210.492C335.665 213.519 337.494 216.164 340.02 217.98C345.485 221.369 351.511 223.723 357.806 224.927C358.005 224.978 357.94 225.269 357.752 225.275C354.192 225.293 350.651 224.743 347.259 223.645C344.081 222.76 341.085 221.305 338.414 219.349C335.903 217.427 334.114 214.695 333.342 211.604C332.957 209.962 332.662 208.299 332.458 206.624C332.107 204.702 331.901 202.755 331.843 200.801C331.847 200.738 331.873 200.678 331.917 200.632C331.96 200.587 332.018 200.558 332.08 200.551C332.142 200.543 332.205 200.558 332.257 200.593C332.31 200.628 332.348 200.68 332.367 200.741Z" fill="#131316"/>
<path d="M289.987 220.285C294.194 221.517 298.292 223.104 302.239 225.028L302.43 225.114C302.342 224.87 302.281 224.617 302.246 224.359L302.105 223.467C302.055 223.155 302.035 222.838 302.003 222.526C301.99 222.367 301.973 222.206 301.958 222.05V221.993C301.45 221.963 300.954 221.827 300.501 221.591C300.048 221.356 299.648 221.028 299.328 220.627C298.509 219.46 297.95 218.128 297.69 216.721C297.228 214.955 296.806 213.178 296.424 211.391C296 209.406 295.642 207.407 295.33 205.402C294.954 203.441 294.729 201.453 294.657 199.456C294.66 199.389 294.687 199.325 294.732 199.276C294.778 199.227 294.839 199.196 294.905 199.189C294.97 199.182 295.037 199.199 295.091 199.237C295.146 199.274 295.186 199.331 295.203 199.396C295.662 201.222 295.868 203.118 296.211 204.972C296.553 206.826 296.955 208.684 297.367 210.531C297.779 212.377 298.241 214.215 298.739 216.039C299.181 217.656 299.638 220.018 301.494 220.551C305.318 221.653 303.601 212.948 303.435 211.245C303.043 207.304 302.804 203.282 302.124 199.378C302.095 199.215 302.335 199.149 302.373 199.315C303.202 202.907 304.154 206.428 304.785 210.07C305.093 211.849 305.316 213.65 305.505 215.445C305.826 216.99 305.704 218.596 305.155 220.073C304.919 220.575 304.565 221.01 304.124 221.34C303.684 221.67 303.17 221.886 302.628 221.967L302.75 222.372C302.834 222.662 302.931 222.948 302.998 223.24C303.065 223.532 303.132 223.826 303.202 224.121C303.33 224.463 303.373 224.832 303.326 225.194C303.29 225.292 303.224 225.374 303.137 225.428C304.772 226.145 306.405 226.865 308.021 227.622C310.05 228.433 312.015 229.401 313.898 230.517C314.116 230.62 313.94 230.929 313.734 230.884C311.627 230.289 309.568 229.532 307.574 228.62C305.529 227.828 303.507 226.98 301.484 226.133C297.457 224.631 293.56 222.791 289.835 220.632C289.802 220.605 289.778 220.567 289.768 220.525C289.758 220.483 289.761 220.439 289.779 220.399C289.796 220.36 289.826 220.327 289.863 220.306C289.901 220.285 289.944 220.278 289.987 220.285Z" fill="#131316"/>
<path d="M368.507 223.112C367.775 216.298 366.383 209.575 364.353 203.038C363.832 201.347 363.278 199.67 362.69 198.007C362.633 197.844 362.378 197.919 362.442 198.085C364.583 204.656 366.106 211.418 366.991 218.28C368.024 224.92 368.232 231.664 367.609 238.356C366.985 244.461 364.821 250.299 361.325 255.309C358.006 259.811 353.867 263.626 349.13 266.547C338.099 273.547 324.991 276.087 312.376 278.573C298.499 281.307 284.573 283.771 270.599 285.965C254.895 288.447 224.078 290.163 222.703 292.975C220.077 298.388 215.93 323.635 213.257 339.104C210.597 354.49 203.939 407.252 203.437 416.103C203.403 416.674 204.261 416.634 204.313 416.08C205.78 400.426 208.445 380.681 210.604 365.107C212.742 349.695 215.334 334.352 218.38 319.078C220.075 310.599 223.273 295.601 224.286 294.195C225.859 292.011 252.275 290.092 266.408 287.886C280.701 285.653 294.95 283.16 309.155 280.409C322.137 277.893 335.647 275.63 347.321 269.045C357.392 263.36 365.594 254.424 368.058 242.854C369.244 236.339 369.396 229.675 368.507 223.112Z" fill="#131316"/>
<path d="M270.674 294.859C267.917 294.786 235.975 297.792 230.53 298.883C230.143 298.964 220.445 353.761 219.504 363.859C219.38 365.192 219.886 366.42 220.268 363.859C221.013 358.892 232.18 300.314 232.208 300.282C237.667 299.65 268.051 295.714 270.736 295.236C270.959 295.203 270.883 294.864 270.674 294.859Z" fill="#131316"/>
<path d="M299.779 224.893C281.046 225.361 262.352 226.86 243.78 229.385C235.499 230.461 227.215 231.691 218.998 233.218C211.644 234.472 204.412 236.37 197.382 238.893C193.545 240.297 189.843 242.056 186.324 244.147C182.853 246.338 179.616 248.889 176.665 251.758C176.536 251.876 176.729 252.055 176.858 251.944C182.657 247.341 189.161 243.732 196.111 241.262C202.993 238.7 210.082 236.751 217.298 235.439C225.328 233.882 233.429 232.748 241.536 231.621C250.297 230.402 259.073 229.329 267.865 228.401C277.792 227.348 289.875 226.49 299.797 225.486C299.874 225.484 299.948 225.45 300.001 225.393C300.055 225.336 300.083 225.259 300.081 225.181C300.079 225.102 300.046 225.027 299.989 224.973C299.932 224.919 299.857 224.89 299.779 224.893Z" fill="#131316"/>
<path d="M315.948 122.014C308.274 148.323 289.659 181.482 275.851 180.619C263.244 179.824 235.377 164.635 223.934 156.654C212.416 148.623 239.474 120.125 246.346 124.71C255.501 130.815 271.21 144.113 273.893 143.378C277.246 142.46 280.762 137.292 300.695 113.915C308.855 104.34 319.214 110.816 315.948 122.014Z" fill="white"/>
<path d="M233.981 113.077C228.405 111.123 222.163 108.432 215.981 108.595C209.8 108.758 204.729 117.066 204.747 119.433C204.764 121.8 207.201 136.557 213.383 136.512C219.565 136.466 215.751 125.145 215.974 123.845C216.197 122.544 216.418 120.879 217.585 120.993C218.751 121.106 239.232 130.767 239.232 130.767L233.981 113.077Z" fill="white"/>
<path d="M233.607 113.941C233.257 113.941 216.647 107.445 210.465 107.611C204.283 107.777 199.21 116.082 199.23 118.451C199.25 120.821 201.685 135.572 207.866 135.527C214.048 135.482 210.234 124.163 210.457 122.86C210.681 121.557 210.902 119.895 212.068 120.008C213.234 120.121 233.716 129.782 233.716 129.782L233.607 113.941Z" fill="white"/>
<path d="M209.949 134.719C210.595 133.593 210.938 132.313 210.941 131.009C211.064 129.671 210.98 128.322 210.693 127.01C210.343 125.887 210.083 124.736 209.917 123.569C209.917 122.409 210.206 121.267 210.755 120.249C211.227 119.366 212.135 119.661 212.917 119.935C214.07 120.369 215.196 120.873 216.29 121.444C217.476 122.03 218.65 122.641 219.826 123.247C221.067 123.827 222.271 124.486 223.429 125.219C223.514 125.277 223.459 125.426 223.352 125.39C222.281 124.977 221.232 124.507 220.208 123.984C219.029 123.436 217.848 122.893 216.659 122.367C215.55 121.877 214.466 121.326 213.349 120.858C212.85 120.568 212.29 120.402 211.716 120.375C211.242 120.486 211.018 121.663 210.917 122.045C210.671 123.174 210.757 124.351 211.165 125.431C211.498 126.548 211.721 127.697 211.83 128.859C211.947 129.954 211.868 131.062 211.597 132.129C211.219 133.086 210.731 133.995 210.142 134.835C210.065 134.961 209.855 134.83 209.949 134.719Z" fill="#0E1A32"/>
<path d="M253.321 130.243C253.321 130.243 236.076 114.548 232.49 111.431C225.293 105.179 195.071 92.9268 190.869 92.5068C186.668 92.0867 185.214 100.822 205.727 109.736C216.54 114.432 218.503 120.675 218.322 124.143C218.141 127.612 214.92 134.099 209.167 133.98C203.414 133.862 199.62 125.381 194.326 124.475C189.033 123.57 192.589 133.367 196.366 139.011C200.319 144.466 205.718 148.673 211.937 151.142C216.925 152.996 232.376 159.608 232.376 159.608L253.321 130.243Z" fill="white"/>
<path d="M201.997 129.934C204.047 131.991 206.662 133.37 209.5 133.891C210.834 133.857 212.13 133.432 213.231 132.668C214.332 131.903 215.191 130.831 215.704 129.582C217.194 127.18 217.714 124.289 217.156 121.508C216.472 118.994 215.088 116.733 213.167 114.996C210.818 112.889 208.18 111.137 205.335 109.795C205.209 109.735 205.318 109.543 205.447 109.606C208.105 110.786 216.366 114.134 218.061 121.503C218.604 124.345 218.051 127.289 216.518 129.731C216.012 130.97 215.21 132.062 214.184 132.908C213.157 133.754 211.939 134.327 210.639 134.575C207.239 134.877 204.295 132.097 201.839 130.025C201.722 129.924 201.883 129.846 201.997 129.934Z" fill="#0E1A32"/>
<path d="M317.084 127.606C314.748 138.219 310.991 148.459 305.916 158.04C304.862 159.949 304.209 160.918 304.209 160.918L280.402 140.003L277.121 137.121C277.121 137.121 277.617 136.432 279.211 134.568C281.494 131.927 286.045 126.952 294.667 118.325C298.408 114.284 302.771 110.887 307.586 108.264C317.429 103.56 320.814 111.619 317.084 127.606Z" fill="#F3BA2F"/>
<path d="M308.475 160.304L302.283 169.195L275.709 145.404L269.753 140.069C270.482 139.43 277.506 133.057 277.506 133.057L279.201 134.566L282.556 137.509L305.906 158.038L308.475 160.304Z" fill="#F3BA2F"/>
<path d="M317.084 127.607C314.748 138.22 310.991 148.46 305.916 158.041L308.485 160.305L302.293 169.196L275.719 145.404C277.259 143.632 278.82 141.829 280.402 139.994L282.563 137.501C292.217 126.291 301.831 115.098 307.586 108.259C317.429 103.561 320.814 111.62 317.084 127.607Z" fill="#131316"/>
<path d="M284.375 208.75C284.375 208.75 316.265 213.834 375.205 204.022C375.205 204.022 343.062 130.879 322.841 112.095C313.639 103.543 304.973 106.695 298.367 113.169C296.721 114.786 280.784 143.302 279.68 153.212C278.702 161.972 286.353 171.014 286.353 171.014L284.375 208.75Z" fill="#F3BA2F"/>
<path d="M312.344 108.62C312.393 110.285 302.151 124.481 294.984 126.051C293.85 126.302 296.91 118.351 296.91 118.351C295.746 115.132 294.87 111.744 294.87 111.744L294.413 110.859L288.033 98.4232L300.744 84.3379L302.613 82.4238C302.613 82.4238 304.137 85.9452 305.99 90.3443C306.077 90.548 306.164 90.7493 306.253 90.9681C306.343 91.1869 306.474 91.446 306.566 91.6824C306.852 92.3364 307.142 93.0029 307.415 93.677C307.623 94.18 307.832 94.6831 308.033 95.2289C308.234 95.7747 308.447 96.3004 308.666 96.8386C310.156 100.676 311.385 104.612 312.344 108.62Z" fill="white"/>
<path d="M306.001 90.3443C305.655 94.4105 304.441 98.3518 302.441 101.894C300.441 105.437 297.705 108.496 294.421 110.859L288.041 98.4232L300.752 84.3379L302.621 82.4238C302.621 82.4238 304.142 85.9426 306.001 90.3443Z" fill="#131316"/>
<path d="M266.149 81.2754C268.135 105.791 282.836 107.358 288.053 106.931C292.788 106.531 308.857 104.572 309.395 79.9801C309.934 55.3886 298.057 48.5724 287.182 48.9019C276.307 49.2314 264.174 56.762 266.149 81.2754Z" fill="white"/>
<path d="M307.748 82.015C305.108 81.9773 297.913 74.9422 297.124 62.0516C297.627 66.4994 298.44 70.9054 299.559 75.2364C300.494 76.894 295.536 71.2774 294.754 60.8996C291.628 63.3955 288.165 65.4233 284.47 66.9211C279.683 68.5233 276.717 68.6113 276.355 68.2717C275.992 67.9322 283.023 65.3264 284.85 62.9898C284.85 62.9898 272.228 69.6576 266.304 70.3921C265.619 70.4776 265.207 58.0675 274.121 51.5731C283.035 45.0788 296.839 49.0705 300.923 52.7226C300.923 52.7226 303.753 53.8494 309.053 60.5198C314.354 67.1902 310.595 82.0527 307.748 82.015Z" fill="#131316"/>
<path d="M308.534 88.007C307.445 91.5761 316.476 75.1944 316.562 72.5911C315.761 68.1554 314.061 63.9361 311.571 60.1989C309.081 56.4618 305.854 53.2878 302.094 50.8771C293.386 45.7938 282.136 48.2663 280.173 48.7215C277.98 49.2192 275.916 50.1856 274.121 51.5562C274.121 51.5562 288.852 48.2688 300.923 52.7057C306.742 54.8461 312.617 74.636 308.534 88.007Z" fill="#F3BA2F"/>
<path d="M306.766 50.0041C306.766 50.0041 304.418 42.1214 297.832 39.5156C297.832 39.5156 296.315 46.4049 298.109 49.2949C299.005 50.7336 304.197 52.63 305.058 51.9006C305.688 51.3278 306.26 50.6925 306.766 50.0041Z" fill="#F3BA2F"/>
<path opacity="0.1" d="M306.768 50.0012C306.262 50.6887 305.692 51.3247 305.065 51.9002C303.895 52.1708 302.669 52.0445 301.576 51.5406C301.997 50.5291 302.515 49.562 303.122 48.653C304.289 47.6639 305.743 47.0888 307.262 47.0156C307.031 48.6908 306.768 50.0012 306.768 50.0012Z" fill="#050400"/>
<path d="M308.177 51.3848C308.177 51.3848 318.015 52.4487 322.018 55.7487C319.719 58.2679 316.556 59.7983 313.178 60.0246C310.915 60.0095 305.733 54.4357 306.361 53.3995C306.873 52.6471 307.484 51.9692 308.177 51.3848Z" fill="#F3BA2F"/>
<path opacity="0.1" d="M309.4 54.8177C308.773 55.5006 307.991 56.0185 307.122 56.3268C306.484 54.9434 306.129 53.7688 306.355 53.399C306.866 52.6465 307.478 51.9694 308.172 51.3868C308.172 51.3868 309.095 51.2536 310.433 51.1152C310.464 52.4266 310.105 53.7171 309.4 54.8177Z" fill="#050400"/>
<path d="M308.599 53.8204C308.024 54.4571 307.224 54.8374 306.373 54.8784C305.522 54.9194 304.69 54.6178 304.058 54.0393C303.43 53.456 303.055 52.6447 303.015 51.7824C302.975 50.9201 303.273 50.0768 303.844 49.4364C304.128 49.1199 304.471 48.8632 304.853 48.6811C305.234 48.4989 305.648 48.3948 306.069 48.3747C306.491 48.3546 306.912 48.4189 307.309 48.564C307.706 48.709 308.071 48.932 308.383 49.2201C308.696 49.5076 308.949 49.8548 309.129 50.2417C309.309 50.6286 309.412 51.0476 309.432 51.4749C309.452 51.9022 309.389 52.3292 309.246 52.7317C309.103 53.1341 308.883 53.5041 308.599 53.8204Z" fill="#F3BA2F"/>
<path d="M310.165 89.0033C309.83 89.2047 309.474 89.3659 309.102 89.4837C308.742 89.6174 308.364 89.6929 307.981 89.7076C307.486 89.7473 306.989 89.6743 306.526 89.4938C306.161 89.3613 305.817 89.1758 305.504 88.943C305.059 88.6125 304.675 88.2046 304.37 87.7382L304.618 81.0301C304.618 81.0301 308.589 72.5638 312.276 73.8717C315.964 75.1796 313.895 86.8226 310.165 89.0033Z" fill="white"/>
<path d="M311.592 77.1897C311.604 77.1885 311.617 77.1916 311.628 77.1985C311.639 77.2054 311.647 77.2157 311.651 77.2278C311.655 77.24 311.655 77.2532 311.651 77.2654C311.647 77.2776 311.64 77.2882 311.629 77.2953C310.458 78.1619 309.48 79.2674 308.757 80.5406C308.034 81.8138 307.582 83.2265 307.43 84.6876C307.545 84.3785 307.725 84.0983 307.957 83.866C308.189 83.6338 308.467 83.455 308.773 83.3418C309.08 83.2286 309.406 83.1837 309.731 83.2103C310.056 83.2368 310.372 83.334 310.656 83.4954C310.741 83.5331 310.688 83.6614 310.607 83.6589C310.09 83.5842 309.563 83.6741 309.099 83.9161C308.635 84.158 308.256 84.5401 308.016 85.0096C307.618 85.7967 307.304 86.6247 307.08 87.4795C306.993 87.7562 306.519 87.6984 306.566 87.3915V87.3211C305.909 83.7293 307.832 78.2109 311.592 77.1897Z" fill="#131316"/>
<path d="M309.661 88.0379C309.651 88.3395 309.524 88.6249 309.307 88.8318C309.09 89.0387 308.802 89.1503 308.504 89.1421C308.206 89.1316 307.925 89.0022 307.721 88.7822C307.517 88.5622 307.407 88.2693 307.415 87.9675C307.424 87.6657 307.552 87.3802 307.769 87.1736C307.987 86.967 308.276 86.8563 308.574 86.8658C308.871 86.8757 309.152 87.0046 309.356 87.2243C309.56 87.444 309.669 87.7365 309.661 88.0379Z" fill="white"/>
<path d="M311.656 85.9515C311.653 86.0576 311.629 86.162 311.586 86.2587C311.543 86.3554 311.481 86.4426 311.405 86.5152C311.329 86.5879 311.239 86.6445 311.141 86.682C311.043 86.7195 310.939 86.7371 310.834 86.7338C310.624 86.7266 310.424 86.6348 310.28 86.4787C310.136 86.3227 310.058 86.115 310.065 85.9013C310.068 85.7955 310.092 85.6915 310.135 85.5951C310.178 85.4987 310.239 85.4118 310.315 85.3393C310.391 85.2669 310.481 85.2104 310.578 85.173C310.676 85.1357 310.78 85.1181 310.884 85.1215C310.989 85.1244 311.091 85.1482 311.187 85.1916C311.282 85.2349 311.368 85.297 311.44 85.3741C311.512 85.4512 311.568 85.5419 311.605 85.641C311.642 85.7401 311.659 85.8456 311.656 85.9515Z" fill="white"/>
<path d="M324.797 129.492C318.3 156.244 283.043 207.802 268.085 211.489C250.766 215.765 204.144 196.083 193.232 186.679C188.887 182.933 213.647 154.464 219.201 157.014C242.482 167.696 261.578 171.243 264.807 169.339C269.77 166.428 290.84 142.068 304.633 125.609C321.961 104.944 327.713 117.49 324.797 129.492Z" fill="white"/>
<path d="M194.391 187.46C185.914 181.339 178.154 174.258 171.259 166.355C166.259 159.865 162.337 152.592 159.648 144.822C155.453 132.528 153.691 123.626 155.2 119.808C156.938 115.371 157.394 114.664 167.745 135.32C173.602 147.005 179.861 148.733 185.365 149.033C198.865 149.745 212.031 153.536 223.884 160.122C223.884 160.122 203.653 191.595 194.391 187.46Z" fill="white"/>
<path d="M175.017 101.486L198.593 138.4C198.769 138.596 198.89 138.835 198.943 139.094C198.996 139.353 198.98 139.622 198.896 139.873C198.812 140.123 198.663 140.346 198.465 140.519C198.266 140.691 198.026 140.806 197.769 140.852L177.211 145.631C176.573 145.728 175.922 145.64 175.332 145.378C174.741 145.115 174.236 144.688 173.875 144.147L150.299 107.231C150.123 107.036 150.003 106.796 149.949 106.537C149.896 106.278 149.912 106.009 149.997 105.758C150.081 105.508 150.23 105.285 150.428 105.113C150.626 104.94 150.866 104.825 151.123 104.779L171.682 99.9998C172.319 99.9019 172.971 99.9897 173.562 100.253C174.152 100.516 174.657 100.944 175.017 101.486Z" fill="#5D26D1"/>
<path d="M176.868 101.157L200.444 138.071C200.62 138.267 200.74 138.507 200.794 138.766C200.847 139.025 200.83 139.294 200.746 139.544C200.662 139.795 200.513 140.018 200.315 140.191C200.117 140.363 199.877 140.479 199.62 140.526L179.062 145.305C178.424 145.403 177.772 145.316 177.181 145.053C176.59 144.79 176.085 144.363 175.724 143.821L152.148 106.907C151.972 106.712 151.851 106.472 151.798 106.213C151.745 105.954 151.761 105.685 151.845 105.434C151.929 105.184 152.078 104.961 152.276 104.788C152.474 104.616 152.715 104.501 152.972 104.455L173.53 99.6758C174.168 99.5778 174.82 99.665 175.41 99.9272C176.001 100.189 176.507 100.616 176.868 101.157Z" fill="#5D26D1"/>
<path d="M176.753 103.303L198.376 137.151C199.037 138.184 198.739 139.218 197.711 139.457L179.319 143.733C178.727 143.81 178.126 143.716 177.585 143.461C177.043 143.207 176.584 142.802 176.26 142.294L154.634 108.449C153.286 106.339 153.823 105.683 154.855 105.431L158.54 104.573C158.684 104.572 158.826 104.609 158.951 104.682C159.076 104.755 159.179 104.861 159.25 104.988L159.327 105.109C159.439 105.341 159.636 105.518 159.876 105.604C160.116 105.691 160.379 105.678 160.61 105.569L169.13 103.587C169.609 103.477 169.993 103.384 169.571 102.727L169.494 102.606C169.316 102.327 169.343 102.063 169.559 102.013L173.247 101.155C174.272 100.924 175.518 101.374 176.753 103.303Z" fill="#5D26D1" stroke="#0E1A32"/>
<path d="M165.505 103.496L163.182 104.039C163.138 104.044 163.094 104.037 163.054 104.02C163.014 104.002 162.979 103.974 162.953 103.938C162.942 103.925 162.934 103.908 162.93 103.89C162.927 103.873 162.928 103.854 162.935 103.837C162.941 103.82 162.951 103.805 162.965 103.794C162.979 103.782 162.995 103.775 163.013 103.772L165.338 103.229C165.381 103.223 165.426 103.229 165.465 103.247C165.505 103.264 165.54 103.293 165.564 103.33C165.611 103.405 165.586 103.478 165.505 103.496Z" fill="#F3BA2F"/>
<path d="M186.244 123.998L170.609 127.632L161.335 113.117L176.97 109.482L186.244 123.998Z" fill="black"/>
<path d="M181.261 127.894L172.143 130.014L171.597 129.161L180.715 127.041L181.261 127.894Z" fill="#A6A6A6"/>
<path d="M183.832 128.904L173.034 131.419L172.761 130.994L183.559 128.479L183.832 128.904Z" fill="#A6A6A6"/>
<path d="M184.33 129.685L173.532 132.2L173.259 131.775L184.057 129.26L184.33 129.685Z" fill="#A6A6A6"/>
<path d="M184.834 130.464L174.036 132.979L173.763 132.554L184.561 130.039L184.834 130.464Z" fill="#A6A6A6"/>
<path d="M160.469 108.245L158.521 108.697L158.297 108.345L160.245 107.893L160.469 108.245Z" fill="#F3BA2F"/>
<path d="M160.878 108.891L158.93 109.344L158.706 108.992L160.652 108.539L160.878 108.891Z" fill="#F3BA2F"/>
<path d="M161.29 109.534L159.342 109.987L159.119 109.634L161.067 109.182L161.29 109.534Z" fill="#F3BA2F"/>
<path d="M192.661 136.755L180.054 139.688L177.912 136.335L190.519 133.402L192.661 136.755Z" fill="#F3BA2F"/>
<path d="M182.633 148.736C188.313 149.239 170.664 136.185 170.855 129.605C171.046 123.025 177.205 125.553 181.913 129.622C198.253 143.75 211.326 144.082 219.198 157.016C227.07 169.949 182.633 148.736 182.633 148.736Z" fill="white"/>
<path d="M274.086 160.734C272.543 162.077 271.064 163.5 269.562 164.889C268.236 166.268 266.785 167.518 265.229 168.624C263.327 169.607 261.149 169.894 259.062 169.436C257.188 169.21 255.34 168.85 253.491 168.43C245.961 166.687 238.56 164.418 231.339 161.639C227.261 160.26 223.263 158.649 219.365 156.812L219.817 157.285C218.8 155.51 217.592 153.854 216.216 152.348C214.624 150.589 212.846 149.012 210.915 147.647C208.868 146.198 206.731 144.885 204.517 143.716C203.36 143.099 202.202 142.488 201.023 141.922C200.432 141.64 199.844 141.351 199.258 141.062C198.516 140.818 197.816 140.455 197.186 139.988C197.33 140.172 197.573 139.892 197.399 139.782L197.313 139.726C197.285 139.706 197.251 139.697 197.217 139.7C197.184 139.703 197.152 139.719 197.129 139.744L197.045 139.84C197.031 139.859 197.023 139.882 197.023 139.906C197.023 139.93 197.031 139.954 197.045 139.973C197.243 140.28 197.645 140.403 197.943 140.592C198.494 140.941 199.042 141.296 199.591 141.643C200.611 142.289 201.628 142.933 202.656 143.567C204.964 144.991 207.279 146.434 209.49 148.009C211.378 149.354 213.178 150.823 214.878 152.406C215.739 153.213 216.526 154.088 217.36 154.921C218.123 155.762 218.82 156.664 219.442 157.617C219.501 157.698 226.562 160.973 230.225 162.537C233.888 164.101 237.67 165.475 241.497 166.687C245.323 167.899 249.153 168.976 253.044 169.874C255.021 170.35 257.026 170.696 259.047 170.91C260.87 171.272 262.757 171.097 264.485 170.407C266.165 169.259 267.671 167.867 268.952 166.275C270.721 164.479 272.525 162.711 274.235 160.857C274.292 160.794 274.171 160.661 274.086 160.734Z" fill="#0E1A32"/>
<path d="M273.676 159.749L301.682 182.403C301.682 182.403 321.695 152.92 325.874 131.047C330.053 109.175 318.925 107.153 301.084 128.17C283.633 148.73 273.676 159.749 273.676 159.749Z" fill="#F3BA2F"/>
<path d="M292.426 138.125C289.291 141.395 286.301 144.863 283.348 148.304C281.908 149.979 280.484 151.657 279.087 153.367C278.349 154.269 277.608 155.172 276.866 156.074C276.104 157.113 275.257 158.086 274.334 158.981C274.16 159.13 274.421 159.369 274.538 159.195C275.933 157.394 277.466 155.708 279.124 154.152C280.72 152.442 282.284 150.704 283.814 148.938C286.822 145.475 289.818 141.923 292.555 138.231C292.569 138.213 292.575 138.191 292.573 138.169C292.57 138.147 292.56 138.126 292.542 138.112C292.525 138.098 292.503 138.092 292.482 138.094C292.46 138.097 292.44 138.108 292.426 138.125Z" fill="#131316"/>
<path d="M320.638 151.34C319.861 152.458 318.991 153.505 318.037 154.472C317.662 154.849 317.312 155.251 316.957 155.646C318.479 152.555 319.936 149.431 321.219 146.267C321.222 146.255 321.221 146.242 321.216 146.23C321.211 146.218 321.201 146.209 321.19 146.204C321.178 146.199 321.165 146.198 321.153 146.202C321.141 146.205 321.131 146.213 321.124 146.224C317.722 152.316 314.635 158.592 311.23 164.689C307.773 170.879 304.683 177.32 300.96 183.354C300.946 183.371 300.935 183.39 300.929 183.411C300.922 183.432 300.92 183.454 300.923 183.476C300.926 183.498 300.934 183.519 300.946 183.537C300.957 183.556 300.973 183.571 300.991 183.583C301.01 183.595 301.031 183.602 301.052 183.605C301.074 183.608 301.096 183.606 301.116 183.599C301.137 183.592 301.156 183.581 301.172 183.566C301.188 183.551 301.2 183.533 301.209 183.513C304.787 177.426 308.716 171.568 312.004 165.297C313.314 162.795 314.625 160.267 315.908 157.729C316.341 157.342 316.744 156.921 317.114 156.471C317.572 155.959 318.003 155.422 318.407 154.864C319.196 153.732 320.012 152.631 320.864 151.544C320.988 151.378 320.747 151.184 320.638 151.34Z" fill="#131316"/>
<path d="M266.445 163.006C267.147 162.322 273.91 155.672 273.91 155.672L305.924 181.627L300.092 190.772L266.445 163.006Z" fill="#FFC727"/>
<path d="M266.445 163.006C267.147 162.322 273.91 155.672 273.91 155.672L305.924 181.627L300.092 190.772L266.445 163.006Z" fill="#F3BA2F"/>
<path d="M302.01 178.181C298.039 174.66 293.765 171.43 289.626 168.12C285.487 164.81 281.084 161.744 277.049 158.278C276.902 158.152 276.714 158.386 276.863 158.51C280.958 161.918 284.784 165.635 288.961 168.95C293.082 172.336 297.372 175.502 301.816 178.438C301.833 178.451 301.852 178.46 301.872 178.466C301.892 178.471 301.913 178.472 301.934 178.47C301.955 178.467 301.975 178.46 301.993 178.449C302.011 178.439 302.027 178.425 302.04 178.408C302.052 178.391 302.062 178.372 302.067 178.351C302.072 178.331 302.074 178.309 302.071 178.288C302.068 178.267 302.061 178.247 302.051 178.229C302.04 178.21 302.026 178.194 302.01 178.181Z" fill="#131316"/>
<path d="M294.557 186.199C296.563 187.528 298.478 188.966 300.37 190.435L299.739 190.536C301.615 187.445 303.581 184.411 305.715 181.481L305.772 181.826C305.01 181.121 304.253 180.412 303.521 179.67C304.395 180.228 305.258 180.819 306.09 181.431L306.269 181.556L306.147 181.775C304.392 184.947 302.472 188.01 300.459 191.014L300.183 191.426L299.829 191.117C298.032 189.532 296.247 187.92 294.557 186.199Z" fill="#131316"/>
<path d="M282.99 82.1964C283.013 82.1361 283.109 82.3046 283.094 82.3725C282.732 84.0929 282.598 86.1202 284.045 86.9653C284.09 86.993 284.07 87.0785 284.013 87.0609C282.179 86.4572 282.377 83.7684 282.99 82.1964Z" fill="black"/>
<path d="M284.832 80.6695C287.614 80.9563 286.84 86.5702 284.261 86.3036C281.727 86.042 282.502 80.4306 284.832 80.6695Z" fill="black"/>
<path d="M273.476 81.1208C273.476 81.0529 273.33 81.1811 273.322 81.2541C273.136 82.9996 272.637 84.9691 271.004 85.3262C270.952 85.3262 270.945 85.4268 271.004 85.4268C272.94 85.4268 273.578 82.7934 273.476 81.1208Z" fill="black"/>
<path d="M272.196 79.0863C269.466 78.4852 268.473 84.0589 271.004 84.6198C273.536 85.1807 274.484 79.5919 272.196 79.0863Z" fill="black"/>
<path d="M287.373 78.4067C286.675 78.0834 285.994 77.7232 285.333 77.3276C284.567 77.0498 283.911 76.525 283.467 75.8336C283.369 75.588 283.354 75.3165 283.424 75.0612C283.494 74.806 283.645 74.5814 283.854 74.4225C284.315 74.1699 284.834 74.047 285.358 74.0665C285.882 74.0859 286.391 74.247 286.832 74.5332C287.813 74.9683 288.598 75.7585 289.034 76.7491C289.095 76.905 289.125 77.0716 289.123 77.2394C289.121 77.4072 289.086 77.573 289.02 77.7271C288.955 77.8813 288.86 78.0209 288.742 78.1379C288.623 78.2549 288.483 78.3471 288.329 78.4092C288.022 78.5362 287.679 78.5353 287.373 78.4067Z" fill="black"/>
<path d="M270.446 75.9566C271.21 75.9079 271.97 75.8181 272.724 75.6874C273.541 75.7055 274.34 75.451 275 74.9631C275.178 74.7692 275.287 74.5211 275.311 74.2576C275.334 73.9941 275.271 73.7301 275.131 73.5067C274.79 73.1066 274.348 72.8065 273.854 72.6376C273.359 72.4686 272.828 72.437 272.317 72.5459C271.248 72.6011 270.237 73.0585 269.483 73.8287C269.261 74.0816 269.147 74.4136 269.166 74.7517C269.185 75.0899 269.335 75.4066 269.585 75.6321C269.822 75.846 270.129 75.9618 270.446 75.9566Z" fill="black"/>
<path d="M282.807 98.602C282.338 98.9516 281.854 99.4546 281.224 99.4119C280.588 99.3081 279.981 99.0699 279.442 98.7126C279.428 98.7042 279.412 98.7015 279.396 98.7053C279.38 98.709 279.366 98.7189 279.358 98.7328C279.353 98.7417 279.351 98.7516 279.351 98.7617C279.351 98.7718 279.353 98.7817 279.358 98.7906C279.555 99.1684 279.849 99.4848 280.21 99.7063C280.57 99.9278 280.983 100.046 281.405 100.048C281.768 100.005 282.11 99.8534 282.388 99.613C282.666 99.3726 282.867 99.054 282.966 98.6976C283.003 98.607 282.874 98.5542 282.807 98.602Z" fill="black"/>
<path d="M281.715 93.1457C281.184 93.7726 280.531 94.2814 279.797 94.6398C279.063 94.9983 278.263 95.1986 277.449 95.2283C276.739 95.2639 276.027 95.1961 275.337 95.027C275.202 95.0065 275.07 94.9719 274.942 94.9239C274.817 94.8942 274.693 94.8573 274.572 94.8132C274.483 94.7826 274.407 94.7232 274.354 94.6441C274.302 94.565 274.276 94.4707 274.282 94.3756C274.288 94.3153 274.302 94.2561 274.324 94.1995L274.346 94.0486C274.498 92.6979 274.905 90.6883 274.905 90.6883C274.389 90.8643 271.773 91.639 271.909 90.9398C272.895 84.928 274.482 79.0337 276.647 73.3482C276.654 73.3282 276.665 73.3099 276.679 73.2942C276.693 73.2785 276.71 73.2658 276.729 73.2569C276.748 73.248 276.768 73.243 276.789 73.2423C276.81 73.2416 276.831 73.2451 276.85 73.2527C276.886 73.2662 276.916 73.2921 276.934 73.3257C276.953 73.3593 276.959 73.3984 276.952 73.4363C276.074 78.9975 274.222 84.3625 273.264 89.9387C274.196 89.6501 275.164 89.496 276.138 89.481C276.319 89.564 275.279 93.3645 275.262 93.9732C275.26 93.9941 275.26 94.0152 275.262 94.0361C276.329 94.3001 277.437 94.3438 278.52 94.1644C279.603 93.9851 280.64 93.5864 281.568 92.9922C281.715 92.8841 281.844 93.0224 281.715 93.1457Z" fill="black"/>
<path d="M276.221 94.4581C276.817 95.5171 277.671 96.4031 278.702 97.0312C279.27 97.3519 279.922 97.4872 280.569 97.4186C281.988 97.2475 282.199 95.9773 282.097 94.8505C282.038 94.2502 281.909 93.6592 281.713 93.0898C280.073 94.1288 278.148 94.6083 276.221 94.4581Z" fill="black"/>
<path d="M278.702 97.0295C279.27 97.3502 279.922 97.4854 280.569 97.4169C281.988 97.2458 282.199 95.9756 282.097 94.8488C281.372 94.7744 280.643 94.9488 280.028 95.3443C279.412 95.7397 278.945 96.3331 278.702 97.0295Z" fill="#FF98B9"/>
<path d="M205.577 37.0605C210.39 35.8591 215.287 38.9792 216.514 44.0292C217.741 49.0793 214.833 54.147 210.02 55.3483C205.206 56.5496 200.309 53.4296 199.082 48.3795C197.855 43.3295 200.763 38.2618 205.577 37.0605Z" fill="#14B7F1"/>
<path d="M210.093 49.6413C209.179 50.206 208.245 50.6827 207.291 51.1954C206.646 51.5402 206.646 51.5402 206.271 50.8385C206.069 50.4925 206.09 50.3346 206.454 50.1505C206.976 49.8986 207.044 49.6975 206.76 49.1261L206.093 47.8237C205.989 47.6348 205.893 47.5991 205.74 47.6968C205.41 47.9036 205.069 48.0482 204.729 48.2574C204.389 48.4666 204.317 48.3602 204.184 48.0566C204.162 47.9874 204.126 47.9232 204.08 47.8677C203.942 47.6586 203.969 47.5275 204.201 47.41C204.566 47.2283 204.921 47.0154 205.285 46.8337C205.416 46.7702 205.49 46.7204 205.386 46.534C205.061 45.9106 204.734 45.2902 204.402 44.6375C204.375 44.5769 204.335 44.5229 204.286 44.4791C204.237 44.4353 204.179 44.4027 204.116 44.3835C204.053 44.3644 203.987 44.359 203.922 44.3679C203.857 44.3768 203.795 44.3997 203.739 44.435C203.102 44.7158 203.102 44.7158 202.753 44.0386C202.744 43.9783 202.72 43.9211 202.685 43.8718C202.518 43.6699 202.641 43.577 202.793 43.4769C203.851 42.9073 204.873 42.3155 205.937 41.7752C206.406 41.5146 206.921 41.3525 207.453 41.2985C207.984 41.2445 208.521 41.2998 209.031 41.4611C209.541 41.6223 210.014 41.8862 210.421 42.237C210.828 42.5877 211.161 43.0181 211.4 43.5024C211.66 43.9532 211.856 44.4387 211.983 44.9448C212.263 45.8279 212.228 46.7831 211.882 47.6422C211.536 48.5013 210.903 49.2092 210.093 49.6413Z" fill="#FEFEFE"/>
<path d="M118.548 180.388C118.548 172.748 124.659 166.555 132.197 166.555C139.736 166.555 145.847 172.748 145.847 180.388C145.847 188.029 139.736 194.222 132.197 194.222C124.659 194.222 118.548 188.029 118.548 180.388Z" fill="#F8842B"/>
<path d="M127.045 183.974H129.278V180.82L131.782 183.371L134.276 180.82V183.974H136.592C136.086 184.807 135.378 185.495 134.537 185.973C133.695 186.452 132.747 186.705 131.782 186.708C130.817 186.708 129.868 186.457 129.026 185.978C128.185 185.499 127.478 184.809 126.975 183.974H127.045Z" fill="white"/>
<path d="M135.461 182.765V177.92L131.783 181.693L128.105 177.92V182.765H126.4C126.107 181.897 126.023 180.971 126.155 180.064C126.287 179.156 126.63 178.294 127.156 177.548C127.682 176.802 128.377 176.194 129.181 175.775C129.986 175.355 130.878 175.137 131.783 175.137C132.687 175.137 133.579 175.355 134.384 175.775C135.189 176.194 135.883 176.802 136.409 177.548C136.936 178.294 137.279 179.156 137.41 180.064C137.542 180.971 137.458 181.897 137.165 182.765H135.461Z" fill="white"/>
<path d="M106.599 62.4734C89.7206 62.7643 75.8056 49.1327 75.5187 32.0265C75.2318 14.9204 88.6816 0.817354 105.56 0.526549C122.438 0.235744 136.353 13.8673 136.64 30.9735C136.927 48.0796 123.477 62.1826 106.599 62.4734Z" fill="#627EEA"/>
<path d="M105.142 8.2793V25.4502L90.8164 31.9353L105.142 8.2793Z" fill="white" fill-opacity="0.6"/>
<path d="M105.142 8.2793L119.467 31.9353L105.142 25.4502V8.2793Z" fill="white"/>
<path d="M105.142 43.0635V54.7404L90.8164 34.6387L105.142 43.0635Z" fill="white" fill-opacity="0.6"/>
<path d="M105.142 54.7404V43.0615L119.467 34.6387L105.142 54.7404Z" fill="white"/>
<path d="M105.142 40.361L90.8164 31.9343L105.142 25.4531V40.361Z" fill="white" fill-opacity="0.2"/>
<path d="M119.467 31.9343L105.142 40.3611V25.4551L119.467 31.9343Z" fill="white" fill-opacity="0.6"/>
<path d="M331.974 30.7324C325.121 30.7324 319.566 25.1019 319.566 18.1562C319.566 11.2106 325.121 5.58008 331.974 5.58008C338.827 5.58008 344.383 11.2106 344.383 18.1562C344.383 25.1019 338.827 30.7324 331.974 30.7324Z" fill="#26A17B"/>
<path fill-rule="evenodd" clip-rule="evenodd" d="M330.483 19.2446C330.567 19.2446 331.009 19.2773 331.989 19.2773C332.773 19.2773 333.324 19.2547 333.518 19.2446C336.533 19.1113 338.784 18.5781 338.784 17.9417C338.784 17.3053 336.533 16.7746 333.518 16.6363V18.7214C333.322 18.7365 332.756 18.7692 331.977 18.7692C331.041 18.7692 330.572 18.729 330.488 18.7214V16.6388C327.477 16.7746 325.234 17.3079 325.234 17.9417C325.234 18.5755 327.467 19.1088 330.488 19.2446M330.488 16.4225V14.5612H326.289V11.7266H337.717V14.5612H333.518V16.42C336.93 16.5784 339.496 17.2651 339.496 18.0851C339.496 18.905 336.93 19.5942 333.518 19.7502V25.7087H330.483V19.7476C327.075 19.5892 324.527 18.905 324.527 18.0851C324.527 17.2651 327.088 16.5759 330.483 16.42" fill="white"/>
<path d="M82.5636 133.857C75.0252 133.857 68.9142 127.663 68.9142 120.023C68.9142 112.383 75.0252 106.189 82.5636 106.189C90.1019 106.189 96.2129 112.383 96.2129 120.023C96.2129 127.663 90.1019 133.857 82.5636 133.857Z" fill="#3CB054"/>
<path fill-rule="evenodd" clip-rule="evenodd" d="M88.5175 112.689C78.1763 113.077 74.1907 119.367 76.191 124.981C76.5946 126.34 77.4574 127.511 78.628 128.289C78.5759 128.063 78.5237 127.839 78.4816 127.607C77.7371 123.228 79.1516 117.959 86.1028 115.049C80.5736 118.384 78.3426 124.317 80.9211 128.148C81.9269 128.261 82.9449 128.147 83.9022 127.814C84.8594 127.481 85.7323 126.938 86.4582 126.224C87.1841 125.509 87.7452 124.641 88.1012 123.681C88.4572 122.721 88.5994 121.693 88.5175 120.67V112.689Z" fill="white"/>
</svg>
